<svg xmlns="http://www.w3.org/2000/svg" xmlns:xlink="http://www.w3.org/1999/xlink" width="1000" height="300" viewBox="0 0 1000 300" role="img" aria-label="Animated Pikachu running across a colorful sky">
  <defs>
    <linearGradient id="sky" x1="0" y1="0" x2="1" y2="1">
      <stop offset="0%"  stop-color="#2b1055">
        <animate attributeName="stop-color" values="#2b1055;#7597de;#ff7eb3;#ffb84d;#2b1055" dur="12s" repeatCount="indefinite"/>
      </stop>
      <stop offset="50%" stop-color="#7597de">
        <animate attributeName="stop-color" values="#7597de;#ff7eb3;#ffb84d;#2b1055;#7597de" dur="12s" repeatCount="indefinite"/>
      </stop>
      <stop offset="100%" stop-color="#ffb84d">
        <animate attributeName="stop-color" values="#ffb84d;#2b1055;#7597de;#ff7eb3;#ffb84d" dur="12s" repeatCount="indefinite"/>
      </stop> 
    </linearGradient>
    <radialGradient id="glow" cx="50%" cy="50%" r="50%">
      <stop offset="0%" stop-color="#fff6c9" stop-opacity="0.9"/>
      <stop offset="100%" stop-color="#fff6c9" stop-opacity="0"/>
    </radialGradient>
    <radialGradient id="shadow" cx="50%" cy="50%" r="50%">
      <stop offset="0%" stop-color="#000" stop-opacity="0.35"/>
      <stop offset="100%" stop-color="#000" stop-opacity="0"/>
    </radialGradient>
    <style>
      .body  { fill:#FFDE3A; }
      .shade { fill:#F5B90A; }
      .dark  { fill:#2B2118; }
      .cheek { fill:#FF5D5D; }
      .white { fill:#FFFDF5; }
      .earTip{ fill:#3A2C1A; }
      .bolt  { fill:#FFD23D; stroke:#3A2C1A; stroke-width:3; stroke-linejoin:round; }
    </style>
  </defs>

  <rect width="1000" height="300" rx="24" fill="url(#sky)"/>

  <g fill="#fffbe6">
    <circle cx="120" cy="55" r="2.5"><animate attributeName="opacity" values="0.2;1;0.2" dur="2.5s" repeatCount="indefinite"/></circle>
    <circle cx="300" cy="40" r="2"><animate attributeName="opacity" values="1;0.2;1" dur="3s" repeatCount="indefinite"/></circle>
    <circle cx="520" cy="60" r="3"><animate attributeName="opacity" values="0.3;1;0.3" dur="2.2s" repeatCount="indefinite"/></circle>
    <circle cx="720" cy="45" r="2"><animate attributeName="opacity" values="1;0.3;1" dur="2.8s" repeatCount="indefinite"/></circle>
    <circle cx="880" cy="70" r="2.5"><animate attributeName="opacity" values="0.2;1;0.2" dur="3.4s" repeatCount="indefinite"/></circle>
    <circle cx="200" cy="90" r="1.8"><animate attributeName="opacity" values="1;0.2;1" dur="2s" repeatCount="indefinite"/></circle>
    <circle cx="640" cy="95" r="1.8"><animate attributeName="opacity" values="0.3;1;0.3" dur="2.6s" repeatCount="indefinite"/></circle>
  </g>

  <g fill="#ffffff" opacity="0.85">
    <g>
      <ellipse cx="0" cy="80" rx="46" ry="20"/>
      <ellipse cx="34" cy="72" rx="34" ry="24"/>
      <ellipse cx="64" cy="82" rx="40" ry="18"/>
      <animateTransform attributeName="transform" type="translate" values="1050,0;-160,0" dur="18s" repeatCount="indefinite"/>
    </g>
    <g opacity="0.7">
      <ellipse cx="0" cy="130" rx="40" ry="16"/>
      <ellipse cx="30" cy="122" rx="30" ry="20"/>
      <ellipse cx="58" cy="130" rx="34" ry="15"/>
      <animateTransform attributeName="transform" type="translate" values="1100,0;-160,20" dur="26s" repeatCount="indefinite"/>
    </g>
  </g>

  <g id="runner">
    <circle cx="80" cy="210" r="90" fill="url(#glow)">
      <animate attributeName="r" values="80;100;80" dur="0.5s" repeatCount="indefinite"/>
    </circle>
    <ellipse cx="80" cy="272" rx="70" ry="14" fill="url(#shadow)">
      <animate attributeName="rx" values="70;58;70" dur="0.3s" repeatCount="indefinite"/>
    </ellipse>
    <g stroke="#FFF07A" stroke-width="5" stroke-linecap="round" opacity="0.8">
      <line x1="-30" y1="190" x2="-90" y2="190"><animate attributeName="opacity" values="0.8;0.1;0.8" dur="0.35s" repeatCount="indefinite"/></line>
      <line x1="-20" y1="215" x2="-100" y2="215"><animate attributeName="opacity" values="0.1;0.8;0.1" dur="0.35s" repeatCount="indefinite"/></line>
      <line x1="-30" y1="240" x2="-85" y2="240"><animate attributeName="opacity" values="0.8;0.1;0.8" dur="0.3s" repeatCount="indefinite"/></line>
    </g>

    <g id="pika" transform="translate(80,210) scale(1.9)">
      <path class="bolt" d="M40 6 L70 -22 L54 4 L82 -8 L44 44 L58 14 Z">
        <animateTransform attributeName="transform" type="rotate" values="-8 45 6; 10 45 6; -8 45 6" dur="0.5s" repeatCount="indefinite"/>
      </path>
      <path class="body"  d="M-24 -30 L-14 -70 L-2 -26 Z"/>
      <path class="earTip" d="M-24 -30 L-19 -50 L-11 -30 Z"/>
      <path class="body"  d="M22 -30 L34 -72 L44 -26 Z"/>
      <path class="earTip" d="M28 -34 L34 -54 L42 -32 Z"/>
      <ellipse class="body" cx="10" cy="0" rx="42" ry="38"/>
      <path class="shade" d="M-28 8 Q10 40 48 8 Q40 34 10 38 Q-20 34 -28 8 Z"/>
      <ellipse class="shade" cx="-24" cy="10" rx="10" ry="14">
        <animateTransform attributeName="transform" type="rotate" values="18 -24 -2; -28 -24 -2; 18 -24 -2" dur="0.3s" repeatCount="indefinite"/>
      </ellipse>
      <ellipse class="body" cx="-8" cy="34" rx="12" ry="15">
        <animateTransform attributeName="transform" type="rotate" values="-30 -8 20; 30 -8 20; -30 -8 20" dur="0.3s" repeatCount="indefinite"/>
      </ellipse>
      <ellipse class="body" cx="26" cy="34" rx="12" ry="15">
        <animateTransform attributeName="transform" type="rotate" values="30 26 20; -30 26 20; 30 26 20" dur="0.3s" repeatCount="indefinite"/>
      </ellipse>
      <ellipse class="body" cx="44" cy="8" rx="10" ry="14">
        <animateTransform attributeName="transform" type="rotate" values="-28 44 -4; 22 44 -4; -28 44 -4" dur="0.3s" repeatCount="indefinite"/>
      </ellipse>
      <circle class="cheek" cx="-18" cy="6" r="9">
        <animate attributeName="r" values="9;10.5;9" dur="0.8s" repeatCount="indefinite"/>
      </circle>
      <circle class="cheek" cx="38" cy="6" r="9">
        <animate attributeName="r" values="9;10.5;9" dur="0.8s" repeatCount="indefinite"/>
      </circle>
      <circle class="dark" cx="-4" cy="-8" r="6"/>
      <circle class="white" cx="-2" cy="-10" r="2"/>
      <circle class="dark" cx="24" cy="-8" r="6"/>
      <circle class="white" cx="26" cy="-10" r="2"/>
      <circle class="dark" cx="10" cy="0" r="2"/>
      <path d="M2 6 Q10 16 18 6 Q10 12 2 6 Z" class="dark"/>
      <path d="M4 8 Q10 13 16 8" fill="#FF5D5D"/>
    </g>
  </g>

  <animateTransform
    xlink:href="#runner"
    attributeName="transform"
    type="translate"
    values="0,0; 760,0; 760,0; 760,0; 0,0; 0,0"
    keyTimes="0; 0.42; 0.46; 0.54; 0.96; 1"
    dur="8s"
    calcMode="spline"
    keySplines="0.4 0 0.6 1; 0 0 1 1; 0 0 1 1; 0.4 0 0.6 1; 0 0 1 1"
    repeatCount="indefinite"/>

  <animateTransform
    xlink:href="#pika"
    attributeName="transform"
    additive="sum"
    type="scale"
    values="1,1; 1,1; -1,1; -1,1; 1,1"
    keyTimes="0; 0.45; 0.46; 0.95; 0.96"
    dur="8s"
    repeatCount="indefinite"/>
</svg>
